# Blender v2.92.0 OBJ File: 'gun.blend'
# www.blender.org
mtllib gun.mtl
o Cube
v 0.611657 0.611657 -1.000000
v 0.611657 -0.611657 -1.000000
v 1.000000 0.564451 1.600173
v 1.000000 -0.564451 1.600173
v -0.611657 0.611657 -1.000000
v -0.611657 -0.611657 -1.000000
v -1.000000 1.000000 2.035723
v -1.000000 -1.000000 2.035723
v 0.582172 -1.000000 0.409624
v -0.582172 -1.000000 0.409624
v 1.000000 0.564451 -0.564451
v -1.000000 1.000000 -1.000000
v 0.611657 -0.611657 -4.659178
v -0.611657 -0.611657 -4.659178
v 0.611657 0.611657 -4.659178
v -0.611657 0.611657 -4.659178
v -1.000000 -1.000000 -1.000000
v -0.582172 -4.041344 1.217446
v 1.000000 -0.564451 -0.564451
v -1.000000 -4.041344 3.164998
v 0.582172 -4.041344 1.217446
v 1.000000 -4.041344 3.164998
v 1.000000 1.000000 -1.000000
v 1.000000 -1.000000 -1.000000
v 1.000000 1.000000 2.035723
v 1.000000 -1.000000 2.035723
v 1.434029 0.564451 -0.564451
v 1.434029 -0.564451 -0.564451
v 1.434029 0.564451 1.600173
v 1.434029 -0.564451 1.600173
vt 0.625000 0.500000
vt 0.875000 0.500000
vt 0.875000 0.750000
vt 0.625000 0.750000
vt 0.375000 0.750000
vt 0.625000 1.000000
vt 0.375000 1.000000
vt 0.375000 0.000000
vt 0.625000 0.000000
vt 0.625000 0.250000
vt 0.375000 0.250000
vt 0.375000 1.000000
vt 0.375000 0.750000
vt 0.570556 0.714131
vt 0.429444 0.714131
vt 0.429444 0.714131
vt 0.570556 0.714131
vt 0.423543 0.451457
vt 0.423543 0.298543
vt 0.423543 0.298543
vt 0.423543 0.451457
vt 0.375000 0.500000
vt 0.576457 0.451457
vt 0.576457 0.298543
vt 0.576457 0.298543
vt 0.576457 0.451457
vt 0.177228 0.534409
vt 0.125000 0.750000
vt 0.125000 0.500000
vt 0.322772 0.534409
vt 0.177228 0.534409
vt 0.322772 0.534409
vt 0.322772 0.715591
vt 0.177228 0.715591
vt 0.322772 0.715591
vt 0.125000 0.750000
vt 0.570556 0.535869
vt 0.429444 0.535869
vt 0.429444 0.535869
vt 0.570556 0.535869
vn 0.0000 1.0000 0.0000
vn 0.0000 0.0000 1.0000
vn -1.0000 0.0000 0.0000
vn 0.0000 0.3481 0.9375
vn 0.0000 -1.0000 0.0000
vn 0.0000 0.0000 -1.0000
vn 1.0000 0.0000 0.0000
vn -0.9712 -0.0723 -0.2271
vn 0.9712 -0.0723 -0.2271
vn 0.0000 -0.2567 -0.9665
usemtl Material
s off
f 23/1/1 12/2/1 7/3/1 25/4/1
f 26/5/2 25/4/2 7/6/2 8/7/2
f 8/8/3 7/9/3 12/10/3 17/11/3
f 26/5/4 8/7/4 20/12/4 22/13/4
f 3/14/2 4/15/2 30/16/2 29/17/2
f 2/18/5 6/19/5 14/20/5 13/21/5
f 6/19/6 2/18/6 24/22/6 17/11/6
f 2/18/6 1/23/6 23/1/6 24/22/6
f 5/24/6 6/19/6 17/11/6 12/10/6
f 1/23/6 5/24/6 12/10/6 23/1/6
f 14/20/6 16/25/6 15/26/6 13/21/6
f 5/24/1 1/23/1 15/26/1 16/25/1
f 1/23/7 2/18/7 13/21/7 15/26/7
f 6/19/3 5/24/3 16/25/3 14/20/3
f 10/27/5 8/28/5 17/29/5
f 9/30/5 10/27/5 17/29/5 24/22/5
f 18/31/5 21/32/5 22/33/5 20/34/5
f 26/35/5 9/30/5 24/22/5
f 8/28/8 10/27/8 18/31/8 20/36/8
f 9/30/9 26/35/9 22/33/9 21/32/9
f 10/27/10 9/30/10 21/32/10 18/31/10
f 11/37/7 19/38/7 24/22/7 23/1/7
f 3/14/7 11/37/7 23/1/7 25/4/7
f 4/15/7 3/14/7 25/4/7 26/5/7
f 19/38/7 4/15/7 26/5/7 24/22/7
f 28/39/7 27/40/7 29/17/7 30/16/7
f 19/38/6 11/37/6 27/40/6 28/39/6
f 4/15/5 19/38/5 28/39/5 30/16/5
f 11/37/1 3/14/1 29/17/1 27/40/1
